<mxfile host="65bd71144e">
    <diagram id="uBqHcXNwr5c8F2R8OyeM" name="Page-1">
        <mxGraphModel dx="1066" dy="775" grid="1" gridSize="10" guides="1" tooltips="1" connect="1" arrows="1" fold="1" page="1" pageScale="1" pageWidth="850" pageHeight="1100" math="0" shadow="0">
            <root>
                <mxCell id="0"/>
                <mxCell id="1" parent="0"/>
                <mxCell id="2" value="&lt;font face=&quot;Verdana&quot;&gt;Poke-clone-v3&lt;/font&gt;" style="swimlane;whiteSpace=wrap;html=1;fontStyle=0" parent="1" vertex="1">
                    <mxGeometry x="40" y="50" width="800" height="430" as="geometry">
                        <mxRectangle x="40" y="40" width="130" height="30" as="alternateBounds"/>
                    </mxGeometry>
                </mxCell>
                <mxCell id="4" value="&lt;b&gt;プレイヤー&lt;/b&gt;" style="text;html=1;align=center;verticalAlign=middle;whiteSpace=wrap;rounded=0;strokeColor=#000000;strokeWidth=1;fillColor=#d5e8d4;fontColor=#E6E6E6;" parent="2" vertex="1">
                    <mxGeometry y="23" width="80" height="97" as="geometry"/>
                </mxCell>
                <mxCell id="5" value="&lt;b&gt;フロント&lt;/b&gt;&lt;div&gt;&lt;b&gt;エンド&lt;/b&gt;&lt;/div&gt;" style="text;html=1;align=center;verticalAlign=middle;whiteSpace=wrap;rounded=0;strokeColor=#000000;strokeWidth=1;fillColor=#dae8fc;fontColor=#E6E6E6;" parent="2" vertex="1">
                    <mxGeometry y="120" width="80" height="180" as="geometry"/>
                </mxCell>
                <mxCell id="6" value="&lt;b&gt;バック&lt;/b&gt;&lt;br&gt;&lt;div&gt;&lt;b&gt;エンド&lt;/b&gt;&lt;/div&gt;" style="text;html=1;align=center;verticalAlign=middle;whiteSpace=wrap;rounded=0;strokeColor=#000000;strokeWidth=1;fillColor=#FF8000;" parent="2" vertex="1">
                    <mxGeometry y="300" width="80" height="130" as="geometry"/>
                </mxCell>
                <mxCell id="16" value="" style="endArrow=none;html=1;exitX=0;exitY=0;exitDx=0;exitDy=0;spacing=0;endSize=0;startSize=0;jumpSize=0;" parent="2" source="6" edge="1">
                    <mxGeometry width="50" height="50" relative="1" as="geometry">
                        <mxPoint x="180" y="350" as="sourcePoint"/>
                        <mxPoint x="800" y="300" as="targetPoint"/>
                    </mxGeometry>
                </mxCell>
                <mxCell id="25" style="edgeStyle=none;html=1;entryX=0.5;entryY=0;entryDx=0;entryDy=0;strokeColor=#009999;fontSize=16;" parent="2" source="18" target="24" edge="1">
                    <mxGeometry relative="1" as="geometry"/>
                </mxCell>
                <mxCell id="18" value="&lt;div&gt;&lt;span style=&quot;background-color: transparent;&quot;&gt;&lt;font style=&quot;color: rgb(255, 255, 255);&quot;&gt;ページ閲覧&lt;/font&gt;&lt;/span&gt;&lt;/div&gt;" style="text;html=1;align=center;verticalAlign=middle;whiteSpace=wrap;rounded=0;fillColor=#0000CC;strokeColor=default;fontSize=16;" parent="2" vertex="1">
                    <mxGeometry x="115" y="40" width="90" height="40" as="geometry"/>
                </mxCell>
                <mxCell id="27" style="edgeStyle=none;html=1;entryX=0.5;entryY=0;entryDx=0;entryDy=0;strokeColor=#009999;fontSize=16;" parent="2" source="19" target="21" edge="1">
                    <mxGeometry relative="1" as="geometry"/>
                </mxCell>
                <mxCell id="19" value="&lt;font color=&quot;#ffffff&quot;&gt;ログイン認証&lt;/font&gt;" style="text;html=1;align=center;verticalAlign=middle;whiteSpace=wrap;rounded=0;fillColor=#0000CC;strokeColor=#000000;fontSize=16;" parent="2" vertex="1">
                    <mxGeometry x="120" y="240" width="80" height="40" as="geometry"/>
                </mxCell>
                <mxCell id="21" value="&lt;font color=&quot;#ffffff&quot;&gt;プレイヤー&lt;/font&gt;&lt;div&gt;&lt;font color=&quot;#ffffff&quot;&gt;情報取得&lt;/font&gt;&lt;/div&gt;" style="text;html=1;align=center;verticalAlign=middle;whiteSpace=wrap;rounded=0;fillColor=#0000CC;strokeColor=#000000;fontSize=16;" parent="2" vertex="1">
                    <mxGeometry x="110" y="320" width="100" height="40" as="geometry"/>
                </mxCell>
                <mxCell id="26" style="edgeStyle=none;html=1;strokeColor=#009999;fontSize=16;" parent="2" source="24" target="19" edge="1">
                    <mxGeometry relative="1" as="geometry"/>
                </mxCell>
                <mxCell id="24" value="&lt;font color=&quot;#ffffff&quot;&gt;ログイン&lt;/font&gt;&lt;div&gt;&lt;font color=&quot;#ffffff&quot;&gt;ページ&lt;/font&gt;&lt;/div&gt;" style="text;html=1;align=center;verticalAlign=middle;whiteSpace=wrap;rounded=0;fillColor=#0000CC;strokeColor=#000000;fontSize=16;" parent="2" vertex="1">
                    <mxGeometry x="120" y="160" width="80" height="40" as="geometry"/>
                </mxCell>
                <mxCell id="29" value="&lt;font color=&quot;#ffffff&quot;&gt;トップページ&lt;/font&gt;" style="text;html=1;align=center;verticalAlign=middle;whiteSpace=wrap;rounded=0;fillColor=#0000CC;strokeColor=#000000;fontSize=16;" parent="2" vertex="1">
                    <mxGeometry x="220" y="160" width="100" height="40" as="geometry"/>
                </mxCell>
                <mxCell id="32" value="&lt;div&gt;&lt;font color=&quot;#ffffff&quot;&gt;ポケモンバトル&lt;/font&gt;&lt;/div&gt;" style="text;html=1;align=center;verticalAlign=middle;whiteSpace=wrap;rounded=0;fillColor=#0000CC;strokeColor=default;fontSize=16;" parent="2" vertex="1">
                    <mxGeometry x="580" y="40" width="190" height="40" as="geometry"/>
                </mxCell>
                <mxCell id="33" value="&lt;font color=&quot;#ffffff&quot;&gt;待機ページ&lt;/font&gt;" style="text;html=1;align=center;verticalAlign=middle;whiteSpace=wrap;rounded=0;fillColor=#0000CC;strokeColor=#000000;fontSize=16;" parent="2" vertex="1">
                    <mxGeometry x="580" y="160" width="90" height="40" as="geometry"/>
                </mxCell>
                <mxCell id="35" style="edgeStyle=none;html=1;strokeColor=#009999;exitX=0.5;exitY=1;exitDx=0;exitDy=0;fontSize=16;" parent="2" edge="1">
                    <mxGeometry relative="1" as="geometry">
                        <mxPoint x="618.75" y="80" as="sourcePoint"/>
                        <mxPoint x="618.75" y="160" as="targetPoint"/>
                    </mxGeometry>
                </mxCell>
                <mxCell id="38" style="edgeStyle=none;html=1;strokeColor=#009999;fontSize=16;exitX=0.5;exitY=1;exitDx=0;exitDy=0;entryX=0.5;entryY=0;entryDx=0;entryDy=0;" parent="2" edge="1">
                    <mxGeometry relative="1" as="geometry">
                        <mxPoint x="620" y="200" as="sourcePoint"/>
                        <mxPoint x="620" y="320" as="targetPoint"/>
                    </mxGeometry>
                </mxCell>
                <mxCell id="39" value="&lt;font color=&quot;#ffffff&quot;&gt;対戦ページ&lt;/font&gt;" style="text;html=1;align=center;verticalAlign=middle;whiteSpace=wrap;rounded=0;fillColor=#0000CC;strokeColor=#000000;fontSize=16;" parent="2" vertex="1">
                    <mxGeometry x="678" y="160" width="92" height="40" as="geometry"/>
                </mxCell>
                <mxCell id="40" value="&lt;font color=&quot;#ffffff&quot;&gt;対戦処理&lt;/font&gt;" style="text;html=1;align=center;verticalAlign=middle;whiteSpace=wrap;rounded=0;fillColor=#0000CC;strokeColor=#000000;fontSize=16;" parent="2" vertex="1">
                    <mxGeometry x="678" y="320" width="86" height="40" as="geometry"/>
                </mxCell>
                <mxCell id="43" value="" style="endArrow=classic;startArrow=classic;html=1;exitX=0.5;exitY=0;exitDx=0;exitDy=0;strokeColor=#009999;fontSize=16;spacing=0;" parent="2" edge="1">
                    <mxGeometry width="50" height="50" relative="1" as="geometry">
                        <mxPoint x="720" y="160" as="sourcePoint"/>
                        <mxPoint x="720" y="80" as="targetPoint"/>
                    </mxGeometry>
                </mxCell>
                <mxCell id="44" style="edgeStyle=none;html=1;entryX=0.5;entryY=0;entryDx=0;entryDy=0;strokeColor=#009999;fontSize=16;" parent="2" source="45" target="51" edge="1">
                    <mxGeometry relative="1" as="geometry"/>
                </mxCell>
                <mxCell id="45" value="&lt;font color=&quot;#ffffff&quot;&gt;手持ち&lt;/font&gt;&lt;div&gt;&lt;font color=&quot;#ffffff&quot;&gt;ポケモン&lt;/font&gt;&lt;/div&gt;" style="text;html=1;align=center;verticalAlign=middle;whiteSpace=wrap;rounded=0;fillColor=#0000CC;strokeColor=default;fontSize=16;" parent="2" vertex="1">
                    <mxGeometry x="359" y="40" width="80" height="40" as="geometry"/>
                </mxCell>
                <mxCell id="48" style="edgeStyle=elbowEdgeStyle;html=1;entryX=0.5;entryY=1;entryDx=0;entryDy=0;strokeColor=#009999;fontSize=16;" parent="2" source="49" target="52" edge="1">
                    <mxGeometry relative="1" as="geometry">
                        <Array as="points">
                            <mxPoint x="510" y="270"/>
                        </Array>
                    </mxGeometry>
                </mxCell>
                <mxCell id="49" value="&lt;font color=&quot;#ffffff&quot;&gt;手持ちポケモン&lt;/font&gt;&lt;br&gt;&lt;div&gt;&lt;font color=&quot;#ffffff&quot;&gt;情報取得&lt;/font&gt;&lt;/div&gt;" style="text;html=1;align=center;verticalAlign=middle;whiteSpace=wrap;rounded=0;fillColor=#0000CC;strokeColor=#000000;fontSize=16;" parent="2" vertex="1">
                    <mxGeometry x="341.75" y="320" width="114.5" height="40" as="geometry"/>
                </mxCell>
                <mxCell id="50" style="edgeStyle=none;html=1;strokeColor=#009999;entryX=0.5;entryY=0;entryDx=0;entryDy=0;fontSize=16;" parent="2" source="51" target="49" edge="1">
                    <mxGeometry relative="1" as="geometry">
                        <mxPoint x="399" y="240" as="targetPoint"/>
                    </mxGeometry>
                </mxCell>
                <mxCell id="51" value="&lt;font color=&quot;#ffffff&quot;&gt;待機ページ&lt;/font&gt;" style="text;html=1;align=center;verticalAlign=middle;whiteSpace=wrap;rounded=0;fillColor=#0000CC;strokeColor=#000000;fontSize=16;" parent="2" vertex="1">
                    <mxGeometry x="359" y="160" width="80" height="40" as="geometry"/>
                </mxCell>
                <mxCell id="52" value="&lt;font color=&quot;#ffffff&quot;&gt;手持ちポケモンページ&lt;/font&gt;" style="text;html=1;align=center;verticalAlign=middle;whiteSpace=wrap;rounded=0;fillColor=#0000CC;strokeColor=#000000;fontSize=16;" parent="2" vertex="1">
                    <mxGeometry x="450" y="160" width="120" height="40" as="geometry"/>
                </mxCell>
                <mxCell id="53" style="edgeStyle=elbowEdgeStyle;html=1;entryX=0.5;entryY=1;entryDx=0;entryDy=0;strokeColor=#009999;fontSize=16;exitX=1;exitY=0.5;exitDx=0;exitDy=0;" edge="1" parent="2" source="21">
                    <mxGeometry relative="1" as="geometry">
                        <Array as="points">
                            <mxPoint x="269" y="270"/>
                        </Array>
                        <mxPoint x="230" y="370" as="sourcePoint"/>
                        <mxPoint x="269" y="200" as="targetPoint"/>
                    </mxGeometry>
                </mxCell>
                <mxCell id="54" value="&lt;font color=&quot;#ffffff&quot;&gt;対戦データ&lt;/font&gt;&lt;div&gt;&lt;font color=&quot;#ffffff&quot;&gt;取得&lt;/font&gt;&lt;/div&gt;" style="text;html=1;align=center;verticalAlign=middle;whiteSpace=wrap;rounded=0;fillColor=#0000CC;strokeColor=#000000;fontSize=16;" vertex="1" parent="2">
                    <mxGeometry x="580" y="320" width="90" height="40" as="geometry"/>
                </mxCell>
                <mxCell id="55" value="" style="endArrow=classic;startArrow=classic;html=1;strokeColor=#009999;fontSize=16;spacing=0;jumpSize=0;" edge="1" parent="2">
                    <mxGeometry width="50" height="50" relative="1" as="geometry">
                        <mxPoint x="720" y="320" as="sourcePoint"/>
                        <mxPoint x="720" y="200" as="targetPoint"/>
                    </mxGeometry>
                </mxCell>
                <mxCell id="14" value="" style="endArrow=none;html=1;exitX=0;exitY=0;exitDx=0;exitDy=0;entryX=1;entryY=0.25;entryDx=0;entryDy=0;" parent="1" edge="1">
                    <mxGeometry width="50" height="50" relative="1" as="geometry">
                        <mxPoint x="40" y="170" as="sourcePoint"/>
                        <mxPoint x="840" y="170" as="targetPoint"/>
                    </mxGeometry>
                </mxCell>
            </root>
        </mxGraphModel>
    </diagram>
</mxfile>